<?xml version="1.0" encoding="UTF-8"?>
<svg width="260" height="260" viewBox="0 0 260 260" xmlns="http://www.w3.org/2000/svg">
    <defs>
        <!-- emas lembut -->
        <linearGradient id="g" x1="0" y1="0" x2="1" y2="1">
            <stop offset="0" stop-color="#f4c26a" stop-opacity="0.26"/>
            <stop offset="1" stop-color="#f4c26a" stop-opacity="0.06"/>
        </linearGradient>
    </defs>

    <rect width="260" height="260" fill="#171717"/>

    <!-- motif diagonal ala parang / etnik -->
    <g stroke="url(#g)" stroke-width="1.3" fill="none" stroke-linecap="round">
        <path d="M-40 40 L40 -40 M0 120 L120 0 M80 200 L200 80 M160 280 L280 160" />
        <path d="M-40 120 L40 40 M0 200 L120 80 M80 280 L200 160" />
        <path d="M80 -40 L160 40 M160 40 L240 -40 M160 120 L240 40 M160 200 L240 120" />
    </g>

    <!-- titik aksen -->
    <g fill="#f4c26a" fill-opacity="0.32">
        <circle cx="30" cy="30" r="2"/>
        <circle cx="130" cy="30" r="2"/>
        <circle cx="230" cy="30" r="2"/>

        <circle cx="80" cy="130" r="2"/>
        <circle cx="180" cy="130" r="2"/>

        <circle cx="30" cy="230" r="2"/>
        <circle cx="130" cy="230" r="2"/>
        <circle cx="230" cy="230" r="2"/>
    </g>
</svg>
