<?xml version="1.0" encoding="UTF-8"?>
<svg width="600" height="900" viewBox="0 0 600 900" xmlns="http://www.w3.org/2000/svg">
    <!-- background transparan -->
    <g fill="#ffffff" fill-opacity="0.9">
        <!-- alas -->
        <rect x="170" y="700" width="260" height="70" rx="18" />
        <!-- badan dasar -->
        <rect x="210" y="560" width="180" height="150" rx="40" />
        <!-- pinggang -->
        <rect x="235" y="460" width="130" height="120" rx="30" />
        <!-- dada / bahu -->
        <rect x="210" y="360" width="180" height="120" rx="55" />
        <!-- leher -->
        <rect x="260" y="320" width="80" height="55" rx="20" />
        <!-- kepala -->
        <circle cx="300" cy="255" r="65" />
        <!-- hiasan kepala sederhana -->
        <path d="M240 215 Q300 150 360 215 Z" />
        <!-- tangan kiri -->
        <path d="M210 390 Q160 430 170 500 Q180 560 210 575 Z" />
        <!-- tangan kanan -->
        <path d="M390 390 Q440 430 430 500 Q420 560 390 575 Z" />
        <!-- detail garis di badan -->
        <path d="M235 520 Q300 545 365 520" fill="none" stroke="#ffffff" stroke-width="8" stroke-linecap="round" stroke-opacity="0.8"/>
        <path d="M245 610 Q300 635 355 610" fill="none" stroke="#ffffff" stroke-width="8" stroke-linecap="round" stroke-opacity="0.8"/>
    </g>
</svg>
